<?xml version="1.0" encoding="UTF-8" standalone="no"?>
<svg width="132px" height="31px" viewBox="0 0 132 31" version="1.1" xmlns="http://www.w3.org/2000/svg" xmlns:xlink="http://www.w3.org/1999/xlink" xmlns:sketch="http://www.bohemiancoding.com/sketch/ns">
    <!-- Generator: Sketch 3.3 (11970) - http://www.bohemiancoding.com/sketch -->
    <title>Imported Layers</title>
    <desc>Created with Sketch.</desc>
    <defs></defs>
    <g id="Page-2" stroke="none" stroke-width="1" fill="none" fill-rule="evenodd" sketch:type="MSPage">
        <g id="8---Регистратура_Запись_ЗаписьПациента" sketch:type="MSArtboardGroup" transform="translate(-20.000000, -17.000000)" fill="#FFFFFF">
            <g id="Imported-Layers" sketch:type="MSLayerGroup" transform="translate(20.000000, 17.500000)">
                <path d="M11.8277966,17.1927273 C11.3882938,16.6393388 10.9555028,16.0809917 10.5346441,15.513719 C10.2708927,15.1589256 10.283322,15.1495041 10.7464407,14.8249587 C12.1221243,16.8696694 13.6656045,18.708843 15.6354124,20.1428926 C16.3682486,20.6769421 17.1438418,21.153719 17.9149605,21.633719 C17.7720226,21.3961983 17.6323164,21.1561983 17.4965876,20.9129752 C16.712791,19.5104132 16.1758418,18.0828099 15.8894689,16.6398347 C14.7293107,15.5590909 13.7168136,14.3402479 12.9456949,12.9109091 C11.9543277,11.0744628 12.3080678,8.69975207 13.8425989,7.21066116 C15.0514802,6.03719008 16.8099887,5.60380165 18.3828023,6.0131405 C19.0149605,5.18876033 19.7376045,4.47123967 20.5278644,3.86628099 C20.2084294,3.59280992 19.8688588,3.29305785 19.5168588,3.00644628 C13.4249718,-1.95545455 4.64386441,-0.00272727273 1.38413559,7.08272727 C-0.572497175,11.3357851 -0.367909605,15.5985124 1.89846328,19.6547107 C4.01046328,23.4342149 6.98183051,26.4984298 10.5580113,28.9554545 C10.9813559,29.2467769 11.5063729,29.4999174 12.0037966,29.5420661 C12.4490169,29.5797521 13.043887,29.4290083 13.3513898,29.1327273 C13.7821921,28.7181818 13.5524972,28.106281 13.1977627,27.6934711 C12.7838644,27.2122314 12.3078192,26.7657025 11.7954802,26.3900826 C9.28872316,24.5528926 7.12228249,22.391157 5.36277966,19.8292562 C5.04533333,19.3671074 5.04906215,19.3643802 5.46246328,19.0626446 C5.58427119,19.2255372 5.71154802,19.3854545 5.82813559,19.5528099 C8.49846328,23.3861157 11.9431412,26.3166942 16.1708701,28.3145455 C16.6501469,28.541157 17.2375593,28.6775207 17.7573559,28.6358678 C18.1463955,28.604876 18.6865763,28.2986777 18.8302599,27.971405 C18.9739435,27.6436364 18.8357288,27.0379339 18.5941017,26.7329752 C18.2537853,26.3038017 17.7223051,26.0107438 17.2405424,25.71 C15.9754802,24.9205785 14.643548,24.2283471 13.4282034,23.3704959 C11.2105537,21.8042975 9.40729944,19.8158678 7.89663277,17.5653719 C7.71615819,17.2963636 7.4340113,16.9943802 7.96300565,16.7977686 C8.01769492,16.8270248 8.04528814,16.8327273 8.05722034,16.8493388 C8.1760452,17.0181818 8.29288136,17.1882645 8.40946893,17.358595 C11.0487232,21.2149587 14.4861921,24.1281818 18.8747571,25.7732231 C19.3696949,25.9586777 19.9563616,26.0655372 20.5412881,26.081157 L20.5415367,26.081157 C20.7762034,26.0747107 21.0106215,26.0533884 21.2398192,26.0186777 C20.2350282,24.9458678 19.3197288,23.7922314 18.5013785,22.5565289 C15.7400678,21.3595041 11.8277966,17.1927273 11.8277966,17.1927273" id="Fill-1" sketch:type="MSShapeGroup"></path>
                <path id="Fill-2" sketch:type="MSShapeGroup" d="M20.7292203,3.71578512 C20.6616045,3.7653719 20.5944859,3.81520661 20.5278644,3.86628099 C20.5325876,3.87 20.5368136,3.87396694 20.5412881,3.87768595 C20.6029379,3.82487603 20.6660791,3.77033058 20.7292203,3.71578512"></path>
                <path d="M39.7175819,7.1261157 C39.7111186,7.1114876 39.7051525,7.09710744 39.6986893,7.08272727 C39.1450847,5.87950413 38.431887,4.82454545 37.5998644,3.92603306 C33.5337175,-0.466115702 26.6229831,-1.11272727 21.5657175,3.00644628 C21.2768588,3.24173554 20.9969492,3.48495868 20.7292203,3.71578512 C20.6660791,3.77033058 20.6029379,3.82487603 20.5412881,3.87768595 C20.5368136,3.87396694 20.5325876,3.87 20.5278644,3.86628099 C19.7376045,4.47123967 19.0149605,5.18876033 18.3828023,6.0131405 C18.7755706,6.11528926 19.1571525,6.2692562 19.5153672,6.4785124 C19.8544407,6.67636364 20.1706441,6.92008264 20.5412881,7.18190083 L20.5415367,7.18190083 C20.9121808,6.92008264 21.2281356,6.67636364 21.5674576,6.4785124 C23.3595254,5.43198347 25.7290621,5.74413223 27.240226,7.21066116 C27.9268249,7.8768595 28.3760226,8.72033058 28.5753898,9.61363636 C28.8214915,10.7169421 28.6850169,11.8961157 28.1371299,12.9109091 C28.1254463,12.9327273 28.1130169,12.9538017 28.1008362,12.9756198 C27.0386215,14.9171901 25.5321808,16.4712397 23.8131977,17.8157851 C23.083096,18.3867769 22.2988023,18.888843 21.5182373,19.3866942 C21.2191864,19.5773554 20.8816045,19.6710744 20.5412881,19.6742975 C20.2009718,19.6710744 19.8636384,19.5773554 19.5645876,19.3866942 C18.7840226,18.888843 17.9994802,18.3867769 17.2696271,17.8157851 C16.791096,17.4416529 16.3299661,17.0504132 15.8894689,16.6398347 C16.1758418,18.0828099 16.712791,19.5104132 17.4965876,20.9129752 C17.6323164,21.1561983 17.7720226,21.3961983 17.9149605,21.633719 C17.9820791,21.675124 18.0489492,21.7167769 18.1155706,21.7584298 C18.5210169,21.9763636 19.3843616,22.372314 20.5412881,22.3933884 L20.5415367,22.3933884 C21.0083842,22.3849587 21.4265085,22.3147934 21.7869605,22.2205785 C21.9903051,22.1675207 22.1752542,22.1067769 22.339322,22.0445455 C22.6053107,21.9433884 22.8173559,21.8387603 22.9672542,21.7584298 C23.5790282,21.3763636 24.195774,20.9987603 24.7948701,20.5971074 C24.948,20.4944628 25.0988927,20.3880992 25.2492881,20.2814876 C25.3149153,20.235124 25.3820339,20.1907438 25.4471638,20.1428926 C26.1566328,19.6266942 26.8099209,19.0569421 27.4207006,18.4447934 C27.5467345,18.3183471 27.6715254,18.1906612 27.7938305,18.0609917 C28.4471186,17.3680165 29.0509379,16.6244628 29.6214463,15.8439669 C29.8655593,15.5107438 30.1037062,15.1710744 30.3363842,14.8249587 C30.7992542,15.1495041 30.8119322,15.1589256 30.5481808,15.513719 C30.3565198,15.7720661 30.1618757,16.0279339 29.9657401,16.2828099 C29.7310734,16.5877686 29.4944181,16.8912397 29.2550282,17.1927273 C29.2550282,17.1927273 28.7881808,17.6898347 28.0637966,18.3897521 C27.9487006,18.5005785 27.8273898,18.6166116 27.7003616,18.7366116 C27.0816271,19.3214876 26.3284068,19.9993388 25.536904,20.6352893 C25.3939661,20.7503306 25.2495367,20.8641322 25.1043616,20.9757025 C24.2927232,21.5995041 23.4599548,22.1546281 22.7057401,22.5009917 C22.5240226,22.5845455 22.3467797,22.6557025 22.1757514,22.7129752 C21.9584859,22.7858678 21.7504181,22.8364463 21.5552768,22.86 C21.2955028,22.8912397 20.9174011,22.9172727 20.5412881,22.9284298 C20.1654237,22.9172727 19.7870734,22.8912397 19.527548,22.86 C19.2135819,22.822562 18.867548,22.7152066 18.5013785,22.5565289 C19.3197288,23.7922314 20.2350282,24.9458678 21.2398192,26.0186777 C21.5818757,25.9666116 21.9115028,25.8842975 22.2080678,25.7732231 C22.887209,25.518595 23.5407458,25.2302479 24.1748927,24.9158678 C24.343435,24.832562 24.5117288,24.7490083 24.6772881,24.6612397 C25.544113,24.202314 26.3671864,23.6858678 27.1499887,23.1180992 C27.2988927,23.01 27.4468023,22.901157 27.5929718,22.7890909 C28.3891977,22.1794215 29.1416723,21.5139669 29.8511412,20.7957025 C29.9431186,20.7027273 30.0336045,20.6080165 30.1240904,20.5135537 C30.7756384,19.8309917 31.3901469,19.1030579 31.9693559,18.3329752 C32.2094915,18.0146281 32.4454011,17.6915702 32.6733559,17.358595 C32.7896949,17.1882645 32.9065311,17.0181818 33.0256045,16.8493388 C33.0372881,16.8327273 33.0651299,16.8270248 33.1198192,16.7977686 C33.648565,16.9943802 33.3666667,17.2963636 33.1859435,17.5653719 C32.9294011,17.9479339 32.6634124,18.3220661 32.3894689,18.6885124 C31.8159774,19.4546281 31.203209,20.1838017 30.5454463,20.8700826 C30.4524746,20.9670248 30.3585085,21.0632231 30.2640452,21.1586777 C29.5543277,21.8712397 28.7936497,22.5334711 27.9752994,23.1371901 C27.8691525,23.2157851 27.7627571,23.2938843 27.6543729,23.3704959 C27.6133559,23.3992562 27.5713446,23.4265289 27.5298305,23.4552893 C26.7266441,24.0116529 25.8769718,24.5018182 25.0302825,24.997438 C24.8704407,25.091157 24.711096,25.1856198 24.5517514,25.2798347 C24.3136045,25.421405 24.0767006,25.563719 23.8422825,25.71 C23.3605198,26.0107438 22.8290395,26.3038017 22.4884746,26.7329752 C22.4134011,26.8279339 22.3500113,26.9533884 22.3002938,27.0892562 C22.1901695,27.3892562 22.1533785,27.7455372 22.252565,27.971405 C22.3962486,28.2986777 22.9361808,28.604876 23.3254689,28.6358678 C23.5444746,28.6532231 23.7759096,28.6376033 24.0061017,28.5986777 C24.3213107,28.5446281 24.6347797,28.4454545 24.9119548,28.3145455 C25.5933333,27.9927273 26.252339,27.6438843 26.8931977,27.2732231 C27.0629831,27.1752893 27.2320226,27.0756198 27.399322,26.9739669 C28.2810621,26.4379339 29.1235254,25.8552893 29.9257175,25.2255372 C30.0554802,25.1236364 30.1827571,25.0190083 30.3100339,24.914876 C31.0771751,24.2880992 31.8085198,23.6194215 32.5005876,22.9046281 C32.6296045,22.7712397 32.755887,22.6343802 32.8824181,22.4977686 C33.515322,21.8157025 34.116904,21.0969421 34.6849266,20.3390083 C34.8783277,20.0809091 35.0687458,19.8193388 35.2544407,19.5528099 C35.3710282,19.3854545 35.4983051,19.2255372 35.6203616,19.0626446 C36.0335141,19.3643802 36.0372429,19.3671074 35.7200452,19.8292562 C35.5328588,20.1017355 35.3399548,20.3690083 35.1435706,20.6328099 C34.5815141,21.3872727 33.9824181,22.1052893 33.3482712,22.7893388 C33.2190056,22.9284298 33.0887458,23.0660331 32.9569944,23.2021488 C32.2706441,23.9112397 31.5455141,24.5828926 30.7833446,25.218843 C30.6600452,25.3217355 30.536,25.4233884 30.4107119,25.5242975 C30.0440452,25.8203306 29.6701695,26.1094215 29.2875932,26.3900826 C28.8572881,26.7052066 28.455322,27.0719008 28.0916384,27.4658678 C28.0222825,27.5414876 27.951435,27.6161157 27.8850621,27.6934711 C27.8276384,27.7601653 27.7741921,27.832562 27.7257175,27.9079339 C27.4736497,28.2991736 27.3702373,28.785124 27.7311864,29.1327273 C28.0386893,29.4290083 28.6338079,29.5797521 29.0790282,29.5420661 C29.0964294,29.5408264 29.1140791,29.5368595 29.1317288,29.534876 C29.6132429,29.4800826 30.1161356,29.2361157 30.5248136,28.9554545 C30.5282938,28.9532231 30.531774,28.9504959 30.5352542,28.9480165 C31.3941243,28.357686 32.2167006,27.731405 33.0019887,27.0694215 C33.1705311,26.9271074 33.3368362,26.7828099 33.5016497,26.6370248 C34.3761808,25.8661983 35.2009944,25.0487603 35.9686328,24.1804959 C36.1267345,24.0012397 36.2828475,23.8202479 36.4364746,23.6370248 C37.4656271,22.4077686 38.3861469,21.082562 39.1843616,19.6547107 C39.3121356,19.4253719 39.4327006,19.1957851 39.547548,18.9654545 C41.4589379,15.1309091 41.5434576,11.1242975 39.7175819,7.1261157" id="Fill-3" sketch:type="MSShapeGroup"></path>
                <path d="M57.4197514,22.207438 L57.4197514,15.5975207 L50.9413107,15.5975207 L50.9413107,22.207438 L47.0146215,22.207438 L47.0146215,6.19487603 C49.1832994,6.19487603 50.9413107,7.94826446 50.9413107,10.1114876 L50.9413107,12.2761983 L57.4197514,12.2761983 L57.4197514,6.19487603 L61.3464407,6.19487603 L61.3464407,22.207438 L57.4197514,22.207438" id="Fill-4" sketch:type="MSShapeGroup"></path>
                <path d="M79.2233672,14.2093388 C79.2233672,15.465124 79.0351864,16.6113223 78.6598192,17.6466942 C78.284452,18.6820661 77.7457627,19.5691736 77.0444972,20.3070248 C76.3429831,21.0453719 75.4952994,21.6156198 74.5009492,22.0172727 C73.507096,22.4194215 72.396904,22.6204959 71.1708701,22.6204959 C69.911774,22.6204959 68.7821921,22.4194215 67.7826215,22.0172727 C66.7828023,21.6156198 65.9351186,21.0453719 65.239322,20.3070248 C64.5435254,19.5691736 64.0105537,18.6820661 63.6404068,17.6466942 C63.2702599,16.6113223 63.0855593,15.465124 63.0855593,14.2093388 C63.0855593,12.9535537 63.2729944,11.8078512 63.6488588,10.7722314 C64.024226,9.7368595 64.5626667,8.85 65.2641808,8.11165289 C65.9654463,7.37380165 66.8133785,6.80355372 67.8074802,6.40140496 C68.8015819,5.9992562 69.911774,5.79842975 71.1378079,5.79842975 C72.396904,5.79842975 73.5262373,5.9992562 74.5260565,6.40140496 C75.5253785,6.80355372 76.3733107,7.37380165 77.0691073,8.11165289 C77.7654011,8.85 78.2978757,9.7368595 78.6682712,10.7722314 C79.0379209,11.8078512 79.2233672,12.9535537 79.2233672,14.2093388 L79.2233672,14.2093388 Z M75.1636836,14.2093388 C75.1636836,13.361157 75.0644972,12.6119008 74.8656271,11.9620661 C74.6670056,11.3119835 74.3905763,10.7670248 74.0373333,10.3259504 C73.6835932,9.88561983 73.2585085,9.55512397 72.7615819,9.33446281 C72.2644068,9.11429752 71.7232316,9.00396694 71.1378079,9.00396694 C70.563322,9.00396694 70.0301017,9.11429752 69.5388927,9.33446281 C69.0471864,9.55512397 68.6248362,9.88561983 68.2713446,10.3259504 C67.9181017,10.7670248 67.6419209,11.3119835 67.4430508,11.9620661 C67.2441808,12.6119008 67.1447458,13.361157 67.1447458,14.2093388 C67.1447458,15.0577686 67.2441808,15.8067769 67.4430508,16.4568595 C67.6419209,17.1069421 67.9205876,17.6494215 68.2797966,18.0845455 C68.6382599,18.5199174 69.0638418,18.8504132 69.555548,19.0760331 C70.0470056,19.3021488 70.5851977,19.4147107 71.1708701,19.4147107 C71.7560452,19.4147107 72.292,19.3021488 72.7779887,19.0760331 C73.2639774,18.8504132 73.6835932,18.5199174 74.0373333,18.0845455 C74.3905763,17.6494215 74.6670056,17.1069421 74.8656271,16.4568595 C75.0644972,15.8067769 75.1636836,15.0577686 75.1636836,14.2093388 L75.1636836,14.2093388 Z" id="Fill-5" sketch:type="MSShapeGroup"></path>
                <path d="M85.0052655,9.49983471 L79.8858531,9.49983471 L79.8858531,6.19487603 L94.0518644,6.19487603 L94.0518644,9.49983471 L88.9322034,9.49983471 L88.9322034,22.207438 L85.0052655,22.207438 L85.0052655,9.49983471" id="Fill-6" sketch:type="MSShapeGroup"></path>
                <path d="M95.2943051,6.19487603 L95.2943051,6.19487603 C97.8413333,6.19487603 100.137288,7.72636364 101.109514,10.0742975 L101.905243,11.9950413 C102.810847,14.1984298 103.451458,15.828843 103.827073,16.8865289 L103.893446,16.8865289 C104.169627,16.0601653 104.755051,14.5289256 105.649966,12.292314 L108.134847,6.19487603 L112.392904,6.19487603 L102.054395,29.891405 L98.1774237,29.891405 L101.855525,21.314876 L95.2943051,6.19487603" id="Fill-7" sketch:type="MSShapeGroup"></path>
                <path d="M122.980249,16.9031405 C123.609921,14.677686 124.399684,12.1715702 125.349537,9.38404959 L126.459729,6.19487603 L131.877695,6.19487603 L131.877695,22.207438 L128.100158,22.207438 L128.100158,16.4568595 C128.100158,15.0466116 128.166282,13.102314 128.299028,10.6234711 L128.166282,10.6234711 C127.845853,11.6263636 127.434441,12.8519008 126.931797,14.3000826 C126.429153,15.7490083 125.835525,17.4428926 125.150915,19.3814876 L124.156565,22.207438 L121.68809,22.207438 L120.677582,19.3653719 C119.992226,17.4483471 119.404068,15.7710744 118.912859,14.3335537 C118.421401,12.8955372 118.009989,11.6590909 117.678373,10.6234711 L117.545627,10.6234711 C117.678373,12.9590083 117.744994,14.9035537 117.744994,16.4568595 L117.744994,22.207438 L113.96696,22.207438 L113.96696,6.19487603 L116.000158,6.19487603 C118.026395,6.19487603 119.830644,7.47495868 120.495119,9.38404959 C121.522282,12.4026446 122.311797,14.9092562 122.864407,16.9031405 L122.980249,16.9031405" id="Fill-8" sketch:type="MSShapeGroup"></path>
            </g>
        </g>
    </g>
</svg>